<svg width="482" height="201" viewBox="0 0 482 201" fill="none" xmlns="http://www.w3.org/2000/svg">
<circle cx="186" cy="184.451" r="16" transform="rotate(-180 186 184.451)" fill="#FF4908" fill-opacity="0.3"/>
<circle cx="16" cy="184.451" r="16" transform="rotate(-180 16 184.451)" fill="#FF4908" fill-opacity="0.3"/>
<circle cx="298" cy="184.451" r="16" transform="rotate(-180 298 184.451)" fill="#FF4908" fill-opacity="0.3"/>
<circle cx="128" cy="184.451" r="16" transform="rotate(-180 128 184.451)" fill="#FF4908" fill-opacity="0.3"/>
<circle cx="410" cy="184.451" r="16" transform="rotate(-180 410 184.451)" fill="#FF4908" fill-opacity="0.3"/>
<circle cx="186" cy="128.451" r="16" transform="rotate(-180 186 128.451)" fill="#FF4908" fill-opacity="0.3"/>
<circle cx="16" cy="128.451" r="16" transform="rotate(-180 16 128.451)" fill="#FF4908" fill-opacity="0.3"/>
<circle cx="298" cy="128.451" r="16" transform="rotate(-180 298 128.451)" fill="#FF4908" fill-opacity="0.3"/>
<circle cx="128" cy="128.451" r="16" transform="rotate(-180 128 128.451)" fill="#FF4908" fill-opacity="0.3"/>
<circle cx="410" cy="128.451" r="16" transform="rotate(-180 410 128.451)" fill="#FF4908" fill-opacity="0.3"/>
<circle cx="242" cy="184.451" r="16" transform="rotate(-180 242 184.451)" fill="#FF4908" fill-opacity="0.3"/>
<circle cx="72" cy="184.451" r="16" transform="rotate(-180 72 184.451)" fill="#FF4908" fill-opacity="0.3"/>
<circle cx="354" cy="184.451" r="16" transform="rotate(-180 354 184.451)" fill="#FF4908" fill-opacity="0.3"/>
<circle cx="466" cy="184.451" r="16" transform="rotate(-180 466 184.451)" fill="#FF4908" fill-opacity="0.3"/>
<circle cx="242" cy="128.451" r="16" transform="rotate(-180 242 128.451)" fill="#FF4908" fill-opacity="0.3"/>
<circle cx="72" cy="128.451" r="16" transform="rotate(-180 72 128.451)" fill="#FF4908" fill-opacity="0.3"/>
<circle cx="354" cy="128.451" r="16" transform="rotate(-180 354 128.451)" fill="#FF4908" fill-opacity="0.3"/>
<circle cx="466" cy="128.451" r="16" transform="rotate(-180 466 128.451)" fill="#FF4908" fill-opacity="0.3"/>
<circle cx="186" cy="72.4507" r="16" transform="rotate(-180 186 72.4507)" fill="#FF4908" fill-opacity="0.3"/>
<circle cx="16" cy="72.4507" r="16" transform="rotate(-180 16 72.4507)" fill="#FF4908" fill-opacity="0.3"/>
<circle cx="298" cy="72.4507" r="16" transform="rotate(-180 298 72.4507)" fill="#FF4908" fill-opacity="0.3"/>
<circle cx="128" cy="72.4507" r="16" transform="rotate(-180 128 72.4507)" fill="#FF4908" fill-opacity="0.3"/>
<circle cx="410" cy="72.4507" r="16" transform="rotate(-180 410 72.4507)" fill="#FF4908" fill-opacity="0.3"/>
<circle cx="186" cy="16.4507" r="16" transform="rotate(-180 186 16.4507)" fill="#FF4908" fill-opacity="0.3"/>
<circle cx="16" cy="16.4507" r="16" transform="rotate(-180 16 16.4507)" fill="#FF4908" fill-opacity="0.3"/>
<circle cx="298" cy="16.4507" r="16" transform="rotate(-180 298 16.4507)" fill="#FF4908" fill-opacity="0.3"/>
<circle cx="128" cy="16.4507" r="16" transform="rotate(-180 128 16.4507)" fill="#FF4908" fill-opacity="0.3"/>
<circle cx="410" cy="16.4507" r="16" transform="rotate(-180 410 16.4507)" fill="#FF4908" fill-opacity="0.3"/>
<circle cx="242" cy="72.4507" r="16" transform="rotate(-180 242 72.4507)" fill="#FF4908" fill-opacity="0.3"/>
<circle cx="72" cy="72.4507" r="16" transform="rotate(-180 72 72.4507)" fill="#FF4908" fill-opacity="0.3"/>
<circle cx="354" cy="72.4507" r="16" transform="rotate(-180 354 72.4507)" fill="#FF4908" fill-opacity="0.3"/>
<circle cx="466" cy="72.4507" r="16" transform="rotate(-180 466 72.4507)" fill="#FF4908" fill-opacity="0.3"/>
<circle cx="242" cy="16.4507" r="16" transform="rotate(-180 242 16.4507)" fill="#FF4908" fill-opacity="0.3"/>
<circle cx="72" cy="16.4507" r="16" transform="rotate(-180 72 16.4507)" fill="#FF4908" fill-opacity="0.3"/>
<circle cx="354" cy="16.4507" r="16" transform="rotate(-180 354 16.4507)" fill="#FF4908" fill-opacity="0.3"/>
<circle cx="466" cy="16.4507" r="16" transform="rotate(-180 466 16.4507)" fill="#FF4908" fill-opacity="0.3"/>
</svg>
