<svg width="88" height="312" viewBox="0 0 88 312" fill="none" xmlns="http://www.w3.org/2000/svg">
<circle cx="72" cy="296" r="16" transform="rotate(90 72 296)" fill="#FF4908" fill-opacity="0.3"/>
<circle cx="72" cy="184" r="16" transform="rotate(90 72 184)" fill="#FF4908" fill-opacity="0.3"/>
<circle cx="72" cy="72" r="16" transform="rotate(90 72 72)" fill="#FF4908" fill-opacity="0.3"/>
<circle cx="16" cy="296" r="16" transform="rotate(90 16 296)" fill="#FF4908" fill-opacity="0.3"/>
<circle cx="16" cy="184" r="16" transform="rotate(90 16 184)" fill="#FF4908" fill-opacity="0.3"/>
<circle cx="16" cy="72" r="16" transform="rotate(90 16 72)" fill="#FF4908" fill-opacity="0.3"/>
<circle cx="72" cy="240" r="16" transform="rotate(90 72 240)" fill="#FF4908" fill-opacity="0.3"/>
<circle cx="72" cy="128" r="16" transform="rotate(90 72 128)" fill="#FF4908" fill-opacity="0.3"/>
<circle cx="72" cy="16" r="16" transform="rotate(90 72 16)" fill="#FF4908" fill-opacity="0.3"/>
<circle cx="16" cy="240" r="16" transform="rotate(90 16 240)" fill="#FF4908" fill-opacity="0.3"/>
<circle cx="16" cy="128" r="16" transform="rotate(90 16 128)" fill="#FF4908" fill-opacity="0.3"/>
<circle cx="16" cy="16" r="16" transform="rotate(90 16 16)" fill="#FF4908" fill-opacity="0.3"/>
</svg>
