<svg width="261" height="293" viewBox="0 0 261 293" fill="none" xmlns="http://www.w3.org/2000/svg">
<path d="M12 12L226.699 12C239.016 12 249 21.9843 249 34.3005V34.3005C249 46.6167 239.016 56.601 226.699 56.601L34.9974 56.601C22.2963 56.601 12 66.8973 12 79.5984V79.5984C12 92.2995 22.2963 102.596 34.9974 102.596L226.762 102.596C238.308 102.596 247.669 111.956 247.669 123.503V123.503C247.669 135.049 238.308 144.409 226.762 144.409L37.0881 144.409C23.2323 144.409 12 155.642 12 169.497V169.497C12 183.353 23.2323 194.585 37.0881 194.585L226.065 194.585C237.996 194.585 247.669 204.258 247.669 216.189V216.189C247.669 228.12 237.996 237.793 226.065 237.793L33.6036 237.793C21.6723 237.793 12 247.465 12 259.396V259.396C12 271.328 21.6723 281 33.6036 281L247.669 281" stroke="#FF4908" stroke-width="24" stroke-linecap="round"/>
</svg>
