<svg width="99" height="537" viewBox="0 0 99 537" fill="none" xmlns="http://www.w3.org/2000/svg">
<path d="M87 12L33.375 12C21.5699 12 12 21.5699 12 33.375V33.375C12 45.1801 21.5699 54.75 33.375 54.75L66.293 54.75C77.7291 54.75 87 64.0209 87 75.457V75.457C87 86.8932 77.7291 96.1641 66.293 96.1641L34.043 96.1641C21.869 96.1641 12 106.033 12 118.207V118.207C12 130.381 21.869 140.25 34.043 140.25L66.293 140.25C77.7291 140.25 87 149.521 87 160.957V160.957C87 172.393 77.7291 181.664 66.293 181.664L34.043 181.664C21.869 181.664 12 191.533 12 203.707V203.707C12 215.881 21.869 225.75 34.0429 225.75L65.625 225.75C77.4301 225.75 87 235.32 87 247.125V247.125C87 258.93 77.4301 268.5 65.625 268.5L34.0429 268.5C21.869 268.5 12 278.369 12 290.543V290.543C12 302.717 21.8689 312.586 34.0429 312.586L66.5396 312.586C77.6068 312.586 86.5786 321.558 86.5786 332.625V332.625C86.5786 343.692 77.6068 352.664 66.5396 352.664L36.0469 352.664C22.7661 352.664 12 363.43 12 376.711V376.711C12 389.992 22.7661 400.758 36.0468 400.758L65.8716 400.758C77.3078 400.758 86.5786 410.029 86.5786 421.465V421.465C86.5786 432.901 77.3078 442.172 65.8716 442.172L32.707 442.172C21.2708 442.172 12 451.443 12 462.879V462.879C12 474.315 21.2708 483.586 32.707 483.586L65.8716 483.586C77.3077 483.586 86.5786 492.857 86.5786 504.293V504.293C86.5786 515.729 77.3077 525 65.8716 525L12 525" stroke="#FF4908" stroke-width="24" stroke-linecap="round"/>
</svg>
