<svg width="143" height="293" viewBox="0 0 143 293" fill="none" xmlns="http://www.w3.org/2000/svg">
<path d="M12 12L108.699 12C121.016 12 131 21.9843 131 34.3005V34.3005C131 46.6167 121.016 56.601 108.699 56.601L34.9974 56.601C22.2963 56.601 12 66.8973 12 79.5984V79.5984C12 92.2995 22.2963 102.596 34.9974 102.596L109.425 102.596C120.971 102.596 130.331 111.956 130.331 123.503V123.503C130.331 135.049 120.971 144.409 109.425 144.409L37.088 144.409C23.2323 144.409 12 155.642 12 169.497V169.497C12 183.353 23.2323 194.585 37.0881 194.585L108.728 194.585C120.659 194.585 130.331 204.258 130.331 216.189V216.189C130.331 228.12 120.659 237.793 108.728 237.793L33.6036 237.793C21.6722 237.793 12 247.465 12 259.396V259.396C12 271.328 21.6723 281 33.6036 281L130.331 281" stroke="#FF4908" stroke-width="24" stroke-linecap="round"/>
</svg>
